<svg xmlns="http://www.w3.org/2000/svg" xmlns:xlink="http://www.w3.org/1999/xlink" width="82" height="50" viewBox="0 0 82 50">
  <defs>
    <clipPath id="clip-path">
      <rect id="사각형_41" data-name="사각형 41" width="82" height="50" fill="none"/>
    </clipPath>
  </defs>
  <g id="Vector_Smart_Object" data-name="Vector Smart Object" transform="translate(-71 -27)">
    <g id="Vector_Smart_Object-2" data-name="Vector Smart Object" transform="translate(71 27)">
      <g id="그룹_213" data-name="그룹 213">
        <g id="그룹_212" data-name="그룹 212" clip-path="url(#clip-path)">
          <path id="패스_409" data-name="패스 409" d="M2.547,25.342V17.909L41,2.649l-.469-.186a1.275,1.275,0,0,1,0-2.371v0L.8,15.854A1.277,1.277,0,0,0,0,17.041v10.6H1.273v-2.3Z" fill="#1a1818"/>
          <path id="패스_410" data-name="패스 410" d="M41,2.649l38.449,15.26v8.78c0,.006,0,.012,0,.019V25.315h2.545V17.041a1.276,1.276,0,0,0-.8-1.187L41.465.089a1.263,1.263,0,0,0-.937,0l.937,2.371Z" fill="#1a1818"/>
          <path id="패스_411" data-name="패스 411" d="M39.813.806a1.277,1.277,0,0,0,.715,1.657L41,2.648l.469-.186L40.529.091a1.269,1.269,0,0,0-.716.714" fill="#1a1818"/>
          <path id="패스_412" data-name="패스 412" d="M11.526,25.342H2.547v2.3H8.7v2.81H.013v2.3H8.7v1.964h2.829Z" fill="#1a1818"/>
          <rect id="사각형_34" data-name="사각형 34" width="1.273" height="2.303" transform="translate(1.273 25.342)" fill="#1a1818"/>
          <path id="패스_413" data-name="패스 413" d="M16.146,32.489h1.523v2.232h2.562V25.342H17.669v4.845H16.146V25.342H13.583v9.379h2.562Z" fill="#1a1818"/>
          <path id="패스_414" data-name="패스 414" d="M17.669,35.359v-.638H16.146v.638H13.583v-.638H11.526v.529H8.7v-.529H.013v9.716H18.975V42.108h1.256V35.359ZM17.4,42.136H2.842V37.023H17.4Z" fill="#1a1818"/>
          <rect id="사각형_35" data-name="사각형 35" width="2.829" height="0.529" transform="translate(8.697 34.721)" fill="#1a1818"/>
          <rect id="사각형_36" data-name="사각형 36" width="2.562" height="0.638" transform="translate(13.583 34.721)" fill="#1a1818"/>
          <rect id="사각형_37" data-name="사각형 37" width="2.562" height="0.638" transform="translate(17.669 34.721)" fill="#1a1818"/>
          <path id="패스_415" data-name="패스 415" d="M39.678,27.644v-2.3H23.256v2.3h3.1v9.77h-3.1v2.3H39.678v-2.3H36.607v-9.77Zm-5.9,9.77h-4.62v-9.77h4.62Z" fill="#1a1818"/>
          <path id="패스_416" data-name="패스 416" d="M54.77,42.126v2.3H42.7v-2.3l-22.469-.011v2.328h37.1V42.127Z" fill="#1a1818"/>
          <path id="패스_417" data-name="패스 417" d="M68.889,42.133l-8.752,0v2.308h6.855v-2.3Z" fill="#1a1818"/>
          <rect id="사각형_38" data-name="사각형 38" width="1.256" height="2.328" transform="translate(18.975 42.108)" fill="#1a1818"/>
          <path id="패스_418" data-name="패스 418" d="M60.137,32.731h2.216v-2.3H60.137V16.063h-2.8V42.127l2.8,0Z" fill="#1a1818"/>
          <rect id="사각형_39" data-name="사각형 39" width="2.803" height="2.308" transform="translate(57.334 42.128)" fill="#1a1818"/>
          <path id="패스_419" data-name="패스 419" d="M54.77,25.317H42.7v16.8l12.069.006ZM51.967,42.1H45.532V27.619h6.435Z" fill="#1a1818"/>
          <path id="패스_420" data-name="패스 420" d="M54.77,44.425v-2.3L42.7,42.12v2.3Z" fill="#1a1818"/>
          <path id="패스_421" data-name="패스 421" d="M75.354,32.678v4.845h2.561V25.315H75.354v5.06H73.3v2.3Z" fill="#1a1818"/>
          <path id="패스_422" data-name="패스 422" d="M80.719,27.965a1.274,1.274,0,0,1-1.271-1.258V37.55h2.547V25.315h0v1.374a1.275,1.275,0,0,1-1.273,1.277" fill="#1a1818"/>
          <path id="패스_423" data-name="패스 423" d="M79.448,26.707a1.272,1.272,0,0,0,2.545-.018V25.315H79.448Z" fill="#1a1818"/>
          <rect id="사각형_40" data-name="사각형 40" width="0.294" height="2.303" transform="translate(73.002 30.375)" fill="#1a1818"/>
          <path id="패스_424" data-name="패스 424" d="M70.467,32.73v4.9H73.3V32.678H73v-2.3H73.3v-5.06H63.043v2.3h7.423v2.81H63.55v2.3Z" fill="#1a1818"/>
          <path id="패스_425" data-name="패스 425" d="M63.55,32.731h0v-2.3h-1.2v2.3Z" fill="#1a1818"/>
          <path id="패스_426" data-name="패스 426" d="M79.7,42.133l-2.768-2.776H72.067v.009l-.01-.009-2.769,2.776h.781v2.3h.17v0l2.77-2.776h2.973l2.769,2.776v0H82v-2.3Z" fill="#1a1818"/>
          <path id="패스_427" data-name="패스 427" d="M70.069,42.134H66.991v2.3h3.077Z" fill="#1a1818"/>
          <path id="패스_428" data-name="패스 428" d="M2.576,48.378a.868.868,0,0,0-.114.419.694.694,0,0,0,.286.521.778.778,0,0,1-.249-.575.9.9,0,0,1,.078-.365" fill="#1a1818"/>
          <path id="패스_429" data-name="패스 429" d="M4.141,49.292a1.615,1.615,0,0,1-.33.034c-.622,0-.994-.218-.994-.583,0-.5.636-.844,1.265-.921L4.25,47.8l-.113-.613-.155.027c-1.27.225-1.838.957-1.838,1.582,0,.388.341,1.124,1.633,1.124a3.022,3.022,0,0,0,.464-.029l.147-.027-.073-.612Zm-.365.469c-1.183,0-1.474-.651-1.474-.964,0-.551.519-1.214,1.707-1.424l.053.291c-.756.092-1.405.513-1.405,1.079,0,.383.325.743,1.153.743a1.809,1.809,0,0,0,.366-.038l.034.287a2.873,2.873,0,0,1-.435.027" fill="#1a1818"/>
          <path id="패스_430" data-name="패스 430" d="M3.811,49.485c-.829,0-1.153-.36-1.153-.742,0-.566.649-.987,1.405-1.08l-.053-.291C2.822,47.583,2.3,48.245,2.3,48.8c0,.313.29.964,1.474.964a2.887,2.887,0,0,0,.435-.026l-.034-.287a1.786,1.786,0,0,1-.366.038M2.462,48.8a.869.869,0,0,1,.114-.419.9.9,0,0,0-.078.365.78.78,0,0,0,.249.575.7.7,0,0,1-.286-.522" fill="#1a1818"/>
          <path id="패스_431" data-name="패스 431" d="M10.339,49.553l.07-.149-.079.144Z" fill="#1a1818"/>
          <path id="패스_432" data-name="패스 432" d="M12.091,48.865v0c.027.045.251.444.38.682l.026-.016c-.118-.192-.293-.491-.482-.818l.078.15Z" fill="#1a1818"/>
          <path id="패스_433" data-name="패스 433" d="M12.191,48.382c-.264-.454-.536-.924-.682-1.153l-.054-.074h-.177l-.046.077c-.039.065-.279.506-.64,1.171-.264.486-.529.974-.615,1.127l-.078.138.58.332.074-.154c.045-.093.236-.5.327-.695l.986-.038c.107.19.356.639.4.731l.077.155.6-.364-.092-.139c-.113-.171-.392-.65-.661-1.115m.219,1.39c-.061-.123-.42-.765-.455-.823L10.775,49c-.046.1-.313.67-.366.781l-.294-.169c.183-.325,1.176-2.167,1.252-2.293h.007c.294.463,1.119,1.929,1.344,2.27Z" fill="#1a1818"/>
          <path id="패스_434" data-name="패스 434" d="M10.905,48.754l.931-.038c-.038-.073-.439-.808-.473-.861-.05.077-.428.846-.458.9m.67-.187-.4.017.015-.031c.05-.1.121-.242.183-.364l.207.378" fill="#1a1818"/>
          <path id="패스_435" data-name="패스 435" d="M11.367,47.315c-.076.127-1.069,1.968-1.252,2.293l.294.168c.053-.111.32-.678.366-.781l1.179-.046c.035.058.393.7.455.823l.309-.187c-.226-.341-1.05-1.807-1.344-2.27Zm-1.028,2.238-.009-.005.079-.144-.07.149m2.158-.02-.027.016c-.129-.237-.353-.637-.379-.682v0h0l-.078-.15c.189.326.364.626.482.817m-1.592-.778c.031-.054.408-.823.458-.9.034.054.436.788.473.861Z" fill="#1a1818"/>
          <path id="패스_436" data-name="패스 436" d="M21.782,49.58c-.033-.084-.073-.188-.118-.3.041.117.078.223.107.308Z" fill="#1a1818"/>
          <path id="패스_437" data-name="패스 437" d="M21.534,48.045c-.112-.295-.2-.537-.239-.627l-.051-.1h-.2L21,47.392c-.037.06-.308.514-.543.908l-.2.335c-.22-.413-.617-1.168-.7-1.33l-.059-.088-.221,0-.032.118c-.034.126-.73,2.184-.776,2.294l-.067.161.636.2.044-.159c.025-.092.256-.847.4-1.329l0-.007c.185.352.433.817.572,1.078l.053.084H20.3l.047-.075c.093-.149.365-.6.583-.954l.107-.176c.158.445.429,1.209.485,1.385l.052.158.627-.234-.062-.153c-.093-.227-.386-1-.6-1.568m.139,1.747c-.08-.245-.553-1.577-.6-1.7-.11.18-.714,1.175-.862,1.413H20.2c-.195-.364-.6-1.126-.752-1.42-.061.2-.485,1.585-.52,1.711l-.313-.1c.057-.138.764-2.235.783-2.315h.015c.1.206.729,1.393.832,1.581.111-.184.825-1.382.886-1.482h.011c.1.264.7,1.853.844,2.2Z" fill="#1a1818"/>
          <path id="패스_438" data-name="패스 438" d="M21.135,47.476c-.062.1-.776,1.3-.886,1.482-.1-.188-.729-1.375-.833-1.581H19.4c-.019.08-.726,2.178-.783,2.316l.313.1c.035-.126.458-1.508.52-1.711.152.295.557,1.056.752,1.42h.008c.149-.237.752-1.233.862-1.413.046.126.52,1.458.6,1.7l.317-.118c-.141-.345-.74-1.933-.844-2.2Zm.647,2.1-.011,0c-.029-.085-.066-.191-.107-.308.045.116.085.22.118.3" fill="#1a1818"/>
          <path id="패스_439" data-name="패스 439" d="M29.419,47.775a.53.53,0,0,1,.15.359.706.706,0,0,1-.038.229A.548.548,0,0,0,29.6,48.1a.375.375,0,0,0-.183-.321" fill="#1a1818"/>
          <path id="패스_440" data-name="패스 440" d="M28.5,47.592h-.016c0,.046,0,.1,0,.152,0,.193,0,.41,0,.453v.356c0,.172,0,.705-.011,1H28.5c0-.13,0-.289,0-.33Z" fill="#1a1818"/>
          <path id="패스_441" data-name="패스 441" d="M29.034,47.311a5.3,5.3,0,0,0-.712-.04h-.159v.16c0,.022,0,.161,0,.316,0,.191,0,.407,0,.449v.356c0,.233-.007,1.012-.015,1.147l-.01.169h.684L28.82,49.7c0-.067,0-.417,0-.481v-.054c.675-.157,1.1-.567,1.1-1.068,0-.411-.323-.7-.887-.785m-.376,1.723v.184c0,.065,0,.421,0,.49h-.348c.008-.141.016-.922.016-1.156V48.2c0-.077-.007-.716-.007-.765a5.166,5.166,0,0,1,.687.038c.465.073.752.283.752.627,0,.467-.455.823-1.1.938" fill="#1a1818"/>
          <path id="패스_442" data-name="패스 442" d="M28.658,47.687v1.095c.412-.08.752-.272.752-.647,0-.118-.076-.44-.752-.447m.159.891v-.722c.316.035.434.161.434.279,0,.2-.146.353-.434.443" fill="#1a1818"/>
          <path id="패스_443" data-name="패스 443" d="M29.009,47.468a5.216,5.216,0,0,0-.687-.038c0,.049.008.689.008.766v.356c0,.233-.008,1.014-.016,1.156h.348c0-.069,0-.424,0-.49v-.184c.649-.115,1.1-.471,1.1-.938,0-.345-.287-.555-.753-.628m-.531,2.08c.006-.291.011-.824.011-1V48.2c0-.043,0-.26,0-.453,0-.054,0-.106,0-.152H28.5v1.626c0,.042,0,.2,0,.33Zm.18-.767V47.687c.676.007.752.329.752.447,0,.375-.34.567-.752.647m.874-.418a.7.7,0,0,0,.038-.229.53.53,0,0,0-.15-.359.375.375,0,0,1,.183.321.544.544,0,0,1-.071.267" fill="#1a1818"/>
          <path id="패스_444" data-name="패스 444" d="M38.973,49.58c-.033-.084-.073-.188-.118-.3.041.117.078.223.107.308Z" fill="#1a1818"/>
          <path id="패스_445" data-name="패스 445" d="M38.725,48.045c-.112-.295-.2-.537-.239-.627l-.051-.1h-.2l-.046.076c-.037.06-.308.514-.543.908l-.2.335c-.22-.413-.617-1.168-.7-1.33l-.059-.088-.221,0-.032.118c-.034.126-.73,2.184-.776,2.294l-.067.161.636.2.044-.159c.025-.092.256-.847.4-1.329l0-.007c.185.352.433.817.572,1.078l.053.084h.183l.047-.075c.093-.149.365-.6.583-.954l.107-.176c.158.445.429,1.209.485,1.385l.052.158.627-.234-.062-.153c-.093-.227-.386-1-.6-1.568m.139,1.747c-.08-.245-.553-1.577-.6-1.7-.11.18-.714,1.175-.862,1.413h-.008c-.195-.364-.6-1.126-.752-1.42-.061.2-.485,1.585-.52,1.711l-.313-.1c.057-.138.764-2.235.783-2.315h.015c.1.206.729,1.393.832,1.581.111-.184.825-1.382.886-1.482h.011c.1.264.7,1.853.844,2.2Z" fill="#1a1818"/>
          <path id="패스_446" data-name="패스 446" d="M38.326,47.476c-.062.1-.776,1.3-.886,1.482-.1-.188-.729-1.375-.833-1.581h-.015c-.019.08-.726,2.178-.783,2.316l.313.1c.035-.126.458-1.508.52-1.711.152.295.557,1.056.752,1.42H37.4c.149-.237.752-1.233.862-1.413.046.126.52,1.458.6,1.7l.317-.118c-.141-.345-.74-1.933-.844-2.2Zm.647,2.1-.011,0c-.029-.085-.066-.191-.107-.308.045.116.085.22.118.3" fill="#1a1818"/>
          <path id="패스_447" data-name="패스 447" d="M45.294,49.553l.07-.149-.079.144Z" fill="#1a1818"/>
          <path id="패스_448" data-name="패스 448" d="M47.046,48.865l0,0c.029.049.251.446.379.681l.027-.016c-.116-.189-.286-.481-.471-.8l.07.132Z" fill="#1a1818"/>
          <path id="패스_449" data-name="패스 449" d="M47.145,48.382c-.264-.454-.536-.924-.681-1.152l-.055-.074h-.178l-.046.077c-.038.063-.252.458-.6,1.1-.276.509-.563,1.036-.653,1.2l-.078.139.58.332.074-.154c.045-.093.236-.5.327-.695l.985-.038c.107.19.355.636.4.732L47.3,50l.6-.363-.091-.139c-.113-.171-.392-.651-.661-1.115m.219,1.391c-.061-.123-.42-.765-.455-.823L45.731,49c-.046.1-.313.67-.367.781l-.294-.169c.183-.325,1.176-2.167,1.252-2.293h.008c.294.463,1.119,1.929,1.344,2.27Z" fill="#1a1818"/>
          <path id="패스_450" data-name="패스 450" d="M45.86,48.754l.932-.038c-.039-.073-.44-.808-.474-.861-.05.077-.428.846-.458.9m.67-.187-.405.017.015-.031c.05-.1.121-.242.183-.364.066.119.144.261.207.378" fill="#1a1818"/>
          <path id="패스_451" data-name="패스 451" d="M46.322,47.315c-.076.127-1.069,1.968-1.252,2.293l.294.168c.053-.111.321-.678.367-.781l1.179-.046c.034.058.393.7.455.823l.309-.187c-.225-.341-1.05-1.807-1.343-2.27Zm-1.028,2.238-.009-.005.079-.144-.07.149m2.159-.02-.027.016c-.128-.235-.35-.632-.379-.681v0h.005l-.07-.132c.186.319.356.611.472.8m-1.593-.778c.031-.054.408-.823.458-.9.034.054.436.788.474.861Z" fill="#1a1818"/>
          <path id="패스_452" data-name="패스 452" d="M54.136,47.589h-.025c.008.256.011.67.011.675v.316c0,.536,0,.818,0,.968h.029c-.008-.289-.013-.807-.013-.836Z" fill="#1a1818"/>
          <path id="패스_453" data-name="패스 453" d="M55.5,49.526l-.221-.24.206.253Z" fill="#1a1818"/>
          <path id="패스_454" data-name="패스 454" d="M55.2,48.2a.414.414,0,0,0,.07-.222.285.285,0,0,0-.167-.245.4.4,0,0,1,.122.3.6.6,0,0,1-.025.172" fill="#1a1818"/>
          <path id="패스_455" data-name="패스 455" d="M55.17,48.682a.9.9,0,0,0,.415-.7c0-.175-.084-.591-.866-.682a5.01,5.01,0,0,0-.582-.029l-.373.006.023.18c.009.072.017.68.017.808v.316c0,.922,0,1.081-.006,1.1l-.026.183.718,0-.017-.175c-.006-.064-.016-.7-.018-.921.189.241.857,1.06.894,1.1l.1.126.516-.456-.124-.12c-.075-.072-.473-.507-.676-.738m-.715-.2v-.642c.28.019.449.087.449.187,0,.226-.28.369-.432.447Zm1.017,1.282c-.038-.046-.825-1.01-.928-1.148.172-.088.519-.264.519-.589,0-.154-.118-.348-.767-.352v1.033c0,.122.011.945.019,1h-.359c.011-.077.008-1.11.008-1.179v-.264c0-.1-.008-.773-.019-.834a6.138,6.138,0,0,1,.756.027c.458.054.726.241.726.524a.84.84,0,0,1-.492.666c.088.119.7.792.8.888Z" fill="#1a1818"/>
          <path id="패스_456" data-name="패스 456" d="M55.426,47.981c0-.284-.267-.47-.726-.524a6.141,6.141,0,0,0-.756-.027c.012.061.019.735.019.834v.264c0,.069,0,1.1-.007,1.179h.359c-.008-.05-.019-.873-.019-.995V47.679c.649,0,.767.2.767.352,0,.326-.347.5-.519.589.1.138.89,1.1.928,1.148l.264-.233c-.1-.1-.714-.769-.8-.888a.839.839,0,0,0,.492-.666M54.12,49.548c0-.15,0-.431,0-.968v-.316c0-.006,0-.419-.011-.675h.025v1.123c0,.028.005.547.013.835Zm1.146-1.566a.415.415,0,0,1-.07.222.6.6,0,0,0,.025-.172.4.4,0,0,0-.122-.295.285.285,0,0,1,.167.245m.238,1.545-.015.013-.206-.253.221.24" fill="#1a1818"/>
          <path id="패스_457" data-name="패스 457" d="M63.618,49.507l.016-.018-.4-.365.15.15.233.233" fill="#1a1818"/>
          <path id="패스_458" data-name="패스 458" d="M62.205,48.532v.191c0,.275-.006.641-.012.859h.035c-.007-.261-.013-.725-.013-.886Z" fill="#1a1818"/>
          <path id="패스_459" data-name="패스 459" d="M62.192,47.627c.006.23.014.565.014.752v.1l.01-.009v-.116c0-.2.008-.574.014-.794H62.19c0,.023,0,.047,0,.072" fill="#1a1818"/>
          <path id="패스_460" data-name="패스 460" d="M63.03,48.494c.252-.221.693-.592.8-.678l.129-.1-.419-.515-.124.131c-.04.042-.369.352-.882.834,0-.305.015-.721.018-.759l.012-.171h-.7v.16c0,.027,0,.118.005.239.005.227.014.559.014.744v.345c0,.383-.012.922-.018,1.006l-.013.172.713,0-.017-.175c-.005-.051-.014-.531-.018-.851.183.184.427.428.626.626.182.182.326.326.345.346l.117.128.463-.508-.12-.107c-.142-.127-.692-.628-.937-.865m-.635,1.248h-.366c.008-.1.019-.647.019-1.019v-.345c0-.283-.019-.907-.019-.984h.366c0,.054-.019.67-.019.953V48.7c0,.252.012.98.019,1.045m1.229,0c-.042-.046-1.073-1.068-1.222-1.229.057-.054,1.05-.984,1.13-1.068l.2.249c-.138.107-.748.624-.935.8.107.127.924.869,1.061.992Z" fill="#1a1818"/>
          <path id="패스_461" data-name="패스 461" d="M62.394,47.4h-.366c0,.077.019.7.019.984v.345c0,.371-.011.922-.019,1.018h.366c-.008-.065-.019-.793-.019-1.045v-.348c0-.283.016-.9.019-.953m-.2,2.187c.006-.218.012-.584.012-.859v-.191l.01.165c0,.16.006.624.013.886Zm.022-1.234v.116l-.01.009v-.1c0-.187-.008-.522-.014-.752,0-.025,0-.049,0-.072h.039c-.006.22-.014.592-.014.793" fill="#1a1818"/>
          <path id="패스_462" data-name="패스 462" d="M62.8,48.486c.187-.172.8-.689.935-.8l-.2-.249c-.08.084-1.073,1.014-1.13,1.068.149.161,1.18,1.183,1.222,1.228l.237-.26c-.138-.123-.954-.865-1.061-.992m.836,1-.016.018-.233-.233-.15-.15.4.365" fill="#1a1818"/>
          <path id="패스_463" data-name="패스 463" d="M70.45,48.33v.432c0,.142,0,.542-.006.79h.02v-1.97h-.022c0,.255.008.714.008.746" fill="#1a1818"/>
          <path id="패스_464" data-name="패스 464" d="M71.488,49.292c-.174.01-.388.012-.562.012h-.144v-.453c.056,0,.126,0,.184,0,.162,0,.328.008.386.008h.166l-.025-.613-.167.015c-.136.012-.38.024-.544.029v-.475l.1,0c.209,0,.48-.011.571-.011h.168l-.033-.605-.161.011c-.175.012-1.072.061-1.15.061h-.169l.01.169c0,.053.011.813.011.89v.432c0,.371,0,.812-.011.935l-.011.17h.17l.484.014c.317.01.68.021.745.021h.166l-.024-.619Zm-1.209.416c.011-.172.011-.869.011-.945V48.33c0-.054-.007-.838-.011-.9.084,0,.988-.05,1.161-.062l.015.275c-.148,0-.775.016-.832.016v.8c.065,0,.507-.015.718-.034l.011.279c-.057,0-.221,0-.382-.008s-.309,0-.347,0v.773c.084,0,.55.008.874-.011l.011.291c-.114,0-1.161-.035-1.229-.035" fill="#1a1818"/>
          <path id="패스_465" data-name="패스 465" d="M70.623,49.463V48.69c.038,0,.191,0,.347,0s.324.007.382.007l-.011-.279c-.21.019-.653.034-.718.034v-.8c.057,0,.683-.015.832-.015l-.015-.276c-.172.012-1.077.062-1.161.062,0,.061.011.846.011.9v.432c0,.076,0,.773-.011.945.068,0,1.115.035,1.229.035l-.011-.291c-.324.019-.79.011-.874.011m-.159.09h-.02c.005-.248.006-.648.006-.79V48.33c0-.032,0-.491-.008-.746h.022Z" fill="#1a1818"/>
          <path id="패스_466" data-name="패스 466" d="M78.61,47.621v.537c0,.68,0,1.145-.013,1.39h.059c-.013-.284-.032-.846-.032-1.341Z" fill="#1a1818"/>
          <path id="패스_467" data-name="패스 467" d="M79.674,47.267c-.093.02-.772.034-.895.034h-.306c-.094,0-.823-.014-.917-.033l-.2-.054-.011.738.207-.064c.051-.009.38-.022.739-.026v.295c0,.818-.008,1.443-.019,1.516l-.043.194H79l-.019-.177c-.007-.065-.041-.821-.041-1.482v-.344c.232,0,.526.011.663.019l.265.552,0-1.209Zm.037.466c-.007-.016-.649-.031-.928-.031v.5c0,.662.034,1.435.042,1.5h-.4c.018-.084.022-1.033.022-1.55V47.7c-.393,0-.885.015-.935.031v-.311c.1.027.92.039.958.039h.306c.065,0,.821-.012.931-.039Z" fill="#1a1818"/>
          <path id="패스_468" data-name="패스 468" d="M78.473,47.461c-.038,0-.859-.012-.958-.039v.311c.05-.016.542-.031.935-.031v.455c0,.517,0,1.466-.022,1.55h.4c-.008-.065-.042-.838-.042-1.5v-.5c.279,0,.92.015.928.031v-.311c-.111.027-.867.039-.931.039Zm.124,2.087c.008-.245.013-.711.013-1.39v-.537l.014.587c0,.494.019,1.057.032,1.341Z" fill="#1a1818"/>
        </g>
      </g>
    </g>
    <path id="Color_Overlay" data-name="Color Overlay" d="M115.853,76.668l.077-.139c.091-.16.377-.688.653-1.2.349-.643.564-1.039.6-1.1l.047-.077h.177l.055.074c.145.229.418.7.681,1.152s.548.945.661,1.116l.091.139-.6.363-.076-.154c-.049-.1-.3-.542-.4-.732l-.985.038c-.091.2-.283.6-.327.695l-.075.155Zm2.47.025c-.114-.212-.382-.694-.412-.744h0C117.941,76,118.209,76.481,118.323,76.694Zm-2.253-.086c.171-.3,1.043-1.92,1.224-2.244C117.113,74.688,116.24,76.306,116.07,76.608Zm.224-.055-.009-.005Zm0,0c.022-.045.045-.1.07-.148C116.339,76.457,116.315,76.508,116.294,76.553Zm2.158-.021-.026.017.027-.017c-.05-.081-.11-.181-.177-.294C118.344,76.352,118.4,76.451,118.453,76.532ZM116.285,76.548Zm0,0c.023-.041.05-.09.079-.143C116.336,76.458,116.309,76.505,116.285,76.548Zm.079-.143Zm1.858-.226c-.085-.152-.158-.284-.175-.311C118.064,75.9,118.138,76.027,118.222,76.179Zm-.171-.313-.07-.132Zm-.259-.149-.931.039.932-.039c-.039-.072-.434-.8-.473-.859C117.359,74.921,117.753,75.644,117.792,75.716Zm-.652-.163c0,.011-.01.021-.014.031l.405-.016c-.064-.117-.141-.259-.207-.378ZM80.9,76.668l.078-.139c.086-.152.35-.64.615-1.126.361-.665.6-1.106.64-1.172l.047-.076h.176l.055.074c.145.229.418.7.681,1.153s.548.944.661,1.115l.092.139-.6.363-.076-.155c-.046-.093-.3-.542-.4-.731l-.985.038c-.091.2-.283.6-.327.695L81.479,77Zm2.511.1h0c-.053-.106-.325-.595-.423-.767C83.085,76.178,83.357,76.667,83.409,76.773Zm-2.079-.225.009.005-.008-.005.018-.033Zm2.167-.015-.026.017.027-.017c-.118-.192-.293-.491-.482-.817C83.205,76.041,83.38,76.341,83.5,76.532Zm-2.285-.1c.309-.565,1.088-2.006,1.154-2.117C82.3,74.426,81.522,75.867,81.213,76.432Zm1.879-.565c.015.025.091.16.178.316-.087-.156-.163-.292-.178-.316v0Zm0,0-.078-.15Zm-.909-.312-.015.031.4-.016c-.063-.117-.141-.258-.207-.378C82.306,75.312,82.235,75.454,82.185,75.553Zm27.527,1.288c-.057-.175-.328-.94-.486-1.385l-.107.176c-.218.357-.49.8-.582.953l-.047.076h-.184l-.053-.085c-.139-.261-.387-.726-.572-1.078l0,.007c-.148.481-.378,1.238-.4,1.329l-.044.158-.635-.2.067-.161c.046-.111.742-2.168.776-2.294l.032-.118.221,0,.059.087c.08.161.478.917.7,1.33l.2-.335c.236-.394.507-.849.544-.908l.047-.076h.2l.051.1c.035.09.127.332.239.626.217.572.51,1.341.6,1.568l.062.153-.626.233Zm.468-.168-.011-.026Zm-.219-.088c-.029-.085-.066-.191-.107-.308C109.9,76.394,109.933,76.5,109.962,76.585ZM108.4,76.5c.148-.237.751-1.232.862-1.412C109.154,75.268,108.551,76.263,108.4,76.5Zm-.76-1.419c.153.3.556,1.056.752,1.419-.194-.365-.6-1.126-.752-1.42Zm.8.876-.005-.01Zm-15.918.884c-.057-.175-.328-.94-.486-1.385l-.107.176c-.218.357-.49.8-.582.953l-.047.076h-.184l-.053-.085c-.14-.261-.387-.726-.572-1.078l0,.007c-.148.481-.379,1.238-.4,1.329l-.044.158-.635-.2.067-.161c.046-.111.742-2.168.776-2.294l.031-.118.221,0,.059.087c.08.161.478.917.7,1.33l.2-.335c.236-.394.507-.849.544-.908l.047-.076h.2l.051.1c.035.09.127.332.239.626.217.572.509,1.341.6,1.568l.062.153L92.573,77Zm.468-.168-.011-.026Zm-.219-.088c-.029-.085-.066-.191-.107-.308C92.705,76.394,92.742,76.5,92.771,76.585Zm-1.56-.084c.148-.237.752-1.232.862-1.412C91.963,75.268,91.36,76.263,91.211,76.5Zm-.76-1.419c.153.3.556,1.056.751,1.419-.194-.365-.6-1.126-.751-1.42Zm.8.876-.005-.01Zm35.1.914c-.038-.045-.7-.864-.895-1.105,0,.222.012.857.018.922l.017.175-.718.005.027-.183c0-.023.008-.183.005-1.1v-.316c0-.128-.007-.736-.017-.808l-.022-.18.373-.006a5.153,5.153,0,0,1,.582.029c.781.092.866.508.866.682a.9.9,0,0,1-.415.7c.2.231.6.666.675.738l.124.121-.516.456Zm.121-.1h0c-.014-.014-.091-.11-.2-.24Zm-1.321-.221h-.029Zm1.34-.008-.206-.254Zm-.032-.3c-.211-.231-.471-.52-.525-.594C125.987,75.722,126.246,76.009,126.458,76.241Zm-1.335-.383q0-.008,0-.016Q125.123,75.849,125.123,75.857Zm0-.032c0-.075,0-.156,0-.245C125.123,75.669,125.123,75.75,125.123,75.825Zm.173-.037c0-.019,0-.035,0-.048C125.3,75.753,125.3,75.769,125.3,75.788Zm.247-.168h0c.172-.088.518-.264.518-.59C126.063,75.356,125.716,75.533,125.544,75.62Zm-.089-.133.016-.009c.153-.077.433-.22.433-.446,0-.1-.168-.167-.449-.186Zm-.332-.222c0-.005,0-.419-.011-.675C125.12,74.845,125.123,75.259,125.123,75.264ZM126.2,75.2v0a.439.439,0,0,0,.068-.193A.442.442,0,0,1,126.2,75.2Zm.024-.171a.4.4,0,0,0-.122-.3A.4.4,0,0,1,126.222,75.031Zm-.522-.574c.458.054.725.24.725.525h0c0-.284-.267-.47-.725-.524l-.033,0Zm-.037,0-.033,0Zm-.036,0a6.7,6.7,0,0,0-.683-.019h.209C125.292,74.43,125.459,74.433,125.627,74.449Zm8.879,2.4c-.019-.021-.163-.164-.346-.347-.2-.2-.444-.442-.626-.626,0,.32.013.8.018.851l.016.175-.713,0,.014-.172c.006-.085.018-.624.018-1.006V75.38c0-.185-.008-.518-.014-.744,0-.121-.005-.213-.005-.239v-.16h.7l-.013.171c0,.038-.014.454-.017.759.513-.481.841-.792.881-.834l.125-.131.419.516-.129.1c-.109.086-.55.457-.8.678.245.238.795.739.937.866l.12.107-.463.508Zm-1.278-.264h-.035Zm-.023-1.035.009.149c0,.157.006.609.014.873-.007-.264-.013-.715-.013-.873l-.01-.165Zm1.428.941-.4-.365C134.386,76.262,134.534,76.4,134.635,76.488Zm.226-.011-.061-.055Zm-.606-.334-.02-.02Zm.479-1.453c-.137.107-.747.624-.934.8h0c.188-.173.8-.689.935-.8l-.2-.248Zm-1.518.659v.116l-.009.008h0l.01-.009v-.116c0-.2.007-.551.013-.773C133.223,74.8,133.215,75.154,133.215,75.349Zm.179-.953h0ZM73.143,75.8c0-.626.569-1.356,1.839-1.582l.156-.027.112.613-.168.021c-.628.077-1.265.419-1.265.922,0,.365.373.583.994.583a1.645,1.645,0,0,0,.33-.034l.173-.04.074.612-.148.028a3.084,3.084,0,0,1-.464.029C73.484,76.92,73.143,76.185,73.143,75.8Zm1.253.939-.06-.009Zm.415-.25h0c-.829,0-1.153-.36-1.153-.743C73.658,76.126,73.982,76.486,74.811,76.486Zm-1.064-.167,0,0a.786.786,0,0,1-.236-.306A.78.78,0,0,0,73.747,76.318Zm-.285-.522a.876.876,0,0,1,.114-.419A.863.863,0,0,0,73.462,75.8Zm.289-.41a1.712,1.712,0,0,1,1.312-.722h0A1.711,1.711,0,0,0,73.751,75.386ZM142.509,76.9c-.065,0-.428-.011-.745-.021l-.484-.013h-.169l.011-.17c.008-.123.011-.563.011-.935V75.33c0-.077-.008-.837-.011-.89l-.01-.169h.168c.078,0,.976-.049,1.15-.061l.161-.011.033.6h-.168c-.091,0-.364.006-.571.011l-.1,0v.475c.164-.005.408-.016.544-.029l.167-.015.024.613h-.166c-.058,0-.223,0-.385-.007-.058,0-.128,0-.184,0V76.3h.144c.174,0,.388,0,.562-.013l.163-.01.023.619Zm0-.159-.011-.291c-.175.01-.391.013-.565.013.175,0,.391,0,.565-.013Zm-1.044-.19h0Zm.441-.088-.283,0Zm.446-.763-.011-.279c-.211.019-.653.034-.718.034.065,0,.508-.015.718-.034Zm-.9-.371c0-.032,0-.491-.008-.746C141.446,74.839,141.45,75.3,141.45,75.33Zm.173-.671c.058,0,.684-.015.832-.015C142.306,74.644,141.681,74.66,141.623,74.66Zm.832-.015-.015-.275c-.172.012-1.076.061-1.161.061h0c.085,0,.989-.05,1.161-.062Zm-43.31,2.223.009-.169c.008-.134.015-.914.015-1.147V75.2c0-.042,0-.258,0-.449,0-.155,0-.294,0-.316v-.16h.159a5.249,5.249,0,0,1,.712.041c.563.088.886.374.886.785,0,.5-.428.911-1.1,1.068v.053c0,.064,0,.414,0,.481l.009.168Zm.184-1.671v.355c0,.234-.007,1.014-.015,1.156.008-.141.016-.923.016-1.156V75.2c0-.067-.006-.554-.008-.717C99.324,74.641,99.329,75.13,99.329,75.2Zm.17,1.352h0c0-.087,0-.188,0-.258,0,.07,0,.17,0,.258h-.022Zm.318-.97c.288-.091.434-.239.434-.444,0-.118-.117-.244-.434-.279Zm.785-.481a.551.551,0,0,1-.07.267.543.543,0,0,0,.071-.267.369.369,0,0,0-.174-.314A.368.368,0,0,1,100.6,75.1Zm-.032.038a.528.528,0,0,0-.15-.359A.528.528,0,0,1,100.57,75.134ZM99.5,74.592h-.015Zm.51-.123.043.007-.043-.007-.01,0Zm49.816,2.4h-.595l.042-.194c.011-.072.019-.7.019-1.516v-.3c-.358,0-.689.017-.739.025l-.207.065.011-.738.2.054c.094.019.823.033.917.033h.305c.123,0,.8-.014.895-.034l.193-.042,0,1.209-.265-.553c-.137-.007-.431-.015-.662-.018v.344c0,.661.033,1.417.04,1.482l.019.177Zm0-.159c-.007-.065-.041-.838-.041-1.5C149.783,75.869,149.818,76.642,149.825,76.707Zm-.168-.159H149.6ZM149.6,76.548Zm0,0c.008-.245.013-.71.013-1.39C149.61,75.837,149.605,76.3,149.6,76.548Zm.157-5.11v0l0,0-2.769-2.776h-2.974l-2.769,2.776v0H71.014V61.721H79.7V59.756H71.014v-2.3H79.7v-2.81H71v-10.6a1.276,1.276,0,0,1,.8-1.186l39.723-15.765v0a1.269,1.269,0,0,0-.715.715,1.282,1.282,0,0,0-.09.468,1.282,1.282,0,0,1,.09-.468,1.269,1.269,0,0,1,.715-.715h0A1.27,1.27,0,0,1,112,27h.014a1.258,1.258,0,0,1,.456.089l39.722,15.765a1.277,1.277,0,0,1,.8,1.187v8.274h0V64.55h-2.547V53.708c0-.006,0-.013,0-.019v-8.78L112,29.649l.469-.186-.469.185-.469-.185.469.186-38.45,15.26v7.433h8.979v9.379h2.057V52.342h2.562v4.844h1.523V52.342h2.562V69.108l22.469.012v-16.8H125.77V69.126h2.564V43.062h2.8V57.43h2.216v2.3h-2.216v9.4h0l8.753,0h.4l2.769-2.776.011.01v-.01h4.868l2.768,2.776H153v2.3Zm-75.911-2.3H88.4V64.023H73.842Zm42.69-.04h6.435V54.619h-6.435ZM87.146,61.721h1.523V59.489H87.146Zm64.573-6.755a1.275,1.275,0,0,0,1.273-1.277A1.276,1.276,0,0,1,151.719,54.966ZM94.256,66.717v-2.3h3.1v-9.77h-3.1v-2.3h16.422v2.3h-3.072v9.77h3.072v2.3Zm5.9-2.3h4.62v-9.77h-4.62Zm41.308.215v-4.9h-8.114v-2.3h8.114v-2.81h-7.423v-2.3H144.3v5.06h2.057v-5.06h2.561V64.523h-2.561V59.678H144.3V64.63Z" fill="#fff"/>
  </g>
</svg>
